<?xml version="1.0" encoding="utf-8"?>
<!-- Generator: Adobe Illustrator 19.0.0, SVG Export Plug-In . SVG Version: 6.00 Build 0)  -->
<svg version="1.1" id="Layer_1" xmlns:sketch="http://www.bohemiancoding.com/sketch/ns"
	 xmlns="http://www.w3.org/2000/svg" xmlns:xlink="http://www.w3.org/1999/xlink" x="0px" y="0px" viewBox="-280 372 50 50"
	 style="enable-background:new -280 372 50 50;" xml:space="preserve">
<style type="text/css">
	.st0{fill:#212121;}
</style>
<title>Logo 2</title>
<desc>Created with Sketch.</desc>
<g id="Page-1" sketch:type="MSPage">
	<g id="Homepage" transform="translate(-50.000000, -27.000000)" sketch:type="MSArtboardGroup">
		<g id="Navigation-Bar" transform="translate(48.000000, 27.000000)" sketch:type="MSLayerGroup">
			<g id="Logo-2" transform="translate(2.000000, 0.000000)" sketch:type="MSShapeGroup">
				<path id="Fill-1" class="st0" d="M-255,422c-13.7,0-24.9-11.2-24.9-24.9c0-13.7,11.2-24.9,24.9-24.9c13.7,0,24.9,11.2,24.9,24.9
					C-230.1,410.8-241.3,422-255,422L-255,422z M-255,373.1c-13.2,0-23.9,10.7-23.9,23.9c0,13.2,10.7,23.9,23.9,23.9
					s23.9-10.7,23.9-23.9C-231.1,383.9-241.8,373.1-255,373.1L-255,373.1z"/>
				<path id="Fill-2" class="st0" d="M-267.7,396.8v-13h2.7c1,0,1.7,0,2.1,0.1c0.5,0.1,0.8,0.3,1.2,0.5c0.4,0.3,0.7,0.7,1,1.2
					c0.2,0.5,0.3,1,0.3,1.6c0,0.7-0.2,1.3-0.5,1.7c-0.3,0.5-0.8,0.8-1.4,1c0.8,0.1,1.4,0.5,1.8,1c0.4,0.6,0.7,1.3,0.7,2.2
					c0,0.5-0.1,1-0.3,1.5c-0.2,0.5-0.5,0.9-0.8,1.2c-0.4,0.4-0.8,0.6-1.4,0.8c-0.5,0.1-1.4,0.2-2.7,0.2H-267.7L-267.7,396.8z
					 M-266.2,385.1v4.4h1.2c1.1,0,1.9-0.2,2.3-0.5c0.5-0.3,0.7-0.9,0.7-1.6c0-0.8-0.2-1.4-0.6-1.8c-0.4-0.3-1.2-0.5-2.4-0.5H-266.2
					L-266.2,385.1z M-266.2,390.7v4.7h1.2c0.8,0,1.4,0,1.8-0.1c0.4-0.1,0.7-0.2,0.9-0.3c0.3-0.2,0.5-0.5,0.6-0.8
					c0.2-0.3,0.2-0.7,0.2-1.1c0-0.5-0.1-0.9-0.3-1.2c-0.2-0.3-0.5-0.6-0.8-0.8c-0.2-0.1-0.4-0.2-0.7-0.3c-0.3-0.1-0.7-0.1-1.3-0.1
					H-266.2L-266.2,390.7z"/>
				<path id="Fill-3" class="st0" d="M-240.8,400.6c-0.6-0.7-1.3-1.2-2-1.5c-0.7-0.3-1.5-0.5-2.3-0.5c-0.7,0-1.4,0.1-2,0.4
					c-0.7,0.3-1.2,0.7-1.7,1.2c-0.5,0.5-0.9,1.1-1.1,1.7c-0.2,0.6-0.4,1.3-0.4,2.1c0,0.6,0.1,1.2,0.2,1.7c0.1,0.5,0.4,1,0.7,1.4
					c0.5,0.7,1.2,1.3,1.9,1.7c0.8,0.4,1.6,0.6,2.5,0.6c0.8,0,1.6-0.2,2.3-0.5c0.7-0.3,1.4-0.9,1.9-1.5v2.1c-0.6,0.5-1.3,0.8-2.1,1.1
					c-0.7,0.2-1.5,0.4-2.3,0.4c-0.7,0-1.4-0.1-2-0.3c-0.7-0.2-1.3-0.5-1.8-0.9c-0.9-0.7-1.7-1.5-2.2-2.4c-0.5-1-0.8-2-0.8-3.2
					c0-1,0.2-1.9,0.5-2.7c0.3-0.8,0.8-1.6,1.5-2.2c0.7-0.6,1.4-1.1,2.2-1.4c0.8-0.3,1.7-0.5,2.6-0.5c0.8,0,1.5,0.1,2.2,0.3
					c0.7,0.2,1.4,0.6,2.1,1.1V400.6"/>
				<path id="Fill-4" class="st0" d="M-267.4,411.3l-0.8-0.8l27-27l0.8,0.8L-267.4,411.3"/>
			</g>
		</g>
	</g>
</g>
</svg>
