<?xml version="1.0" encoding="UTF-8" standalone="no"?>
<svg width="50px" height="50px" viewBox="0 0 50 50" version="1.1" xmlns="http://www.w3.org/2000/svg" xmlns:xlink="http://www.w3.org/1999/xlink" xmlns:sketch="http://www.bohemiancoding.com/sketch/ns">
    <!-- Generator: Sketch 3.3.2 (12043) - http://www.bohemiancoding.com/sketch -->
    <title>Logo 2</title>
    <desc>Created with Sketch.</desc>
    <defs></defs>
    <g id="Page-1" stroke="none" stroke-width="1" fill="none" fill-rule="evenodd" sketch:type="MSPage">
        <g id="Homepage" sketch:type="MSArtboardGroup" transform="translate(-50.000000, -27.000000)" fill="#FFFFFF">
            <g id="Navigation-Bar" sketch:type="MSLayerGroup" transform="translate(48.000000, 27.000000)">
                <g id="Logo-2" transform="translate(2.000000, 0.000000)" sketch:type="MSShapeGroup">
                    <path d="M25.0055556,49.9827586 C11.2758621,49.9827586 0.105938697,38.8128352 0.105938697,25.0831418 C0.105938697,11.3532567 11.2758621,0.183333333 25.0055556,0.183333333 C38.735249,0.183333333 49.905364,11.3532567 49.905364,25.0831418 C49.905364,38.8128352 38.735249,49.9827586 25.0055556,49.9827586 L25.0055556,49.9827586 Z M25.0055556,1.14118774 C11.804023,1.14118774 1.0637931,11.8814176 1.0637931,25.0831418 C1.0637931,38.2846743 11.804023,49.0249042 25.0055556,49.0249042 C38.2070881,49.0249042 48.9475096,38.2846743 48.9475096,25.0831418 C48.9475096,11.8814176 38.2070881,1.14118774 25.0055556,1.14118774 L25.0055556,1.14118774 Z" id="Fill-1"></path>
                    <path d="M12.3164751,24.8122605 L12.3164751,11.8036398 L15.0266284,11.8036398 C15.9802682,11.8036398 16.683908,11.852682 17.1371648,11.9503831 C17.5898467,12.0480843 17.9796935,12.2155172 18.3051724,12.4524904 C18.7195402,12.7601533 19.0413793,13.155364 19.2695402,13.6386973 C19.4971264,14.1218391 19.6116858,14.6505747 19.6116858,15.2245211 C19.6116858,15.9122605 19.4471264,16.4867816 19.1181992,16.9482759 C18.7898467,17.4103448 18.3109195,17.7331418 17.6833333,17.9166667 C18.4532567,18.0358238 19.0616858,18.3798851 19.5090038,18.9517241 C19.956705,19.5235632 20.1804598,20.244636 20.1804598,21.1155172 C20.1804598,21.6367816 20.0856322,22.1344828 19.8954023,22.6084291 C19.7061303,23.082567 19.4427203,23.4881226 19.1051724,23.8260536 C18.7371648,24.1867816 18.2844828,24.441954 17.7452107,24.5896552 C17.206705,24.737931 16.3001916,24.8122605 15.0266284,24.8122605 L12.3164751,24.8122605 L12.3164751,24.8122605 Z M13.8270115,13.1455939 L13.8270115,17.4994253 L15.0266284,17.4994253 C16.1283525,17.4994253 16.9047893,17.339272 17.3544061,17.0193487 C17.8045977,16.6998084 18.0296935,16.1605364 18.0296935,15.4021073 C18.0296935,14.567433 17.8210728,13.9819923 17.4032567,13.6477011 C16.9858238,13.3128352 16.1934866,13.1455939 15.0266284,13.1455939 L13.8270115,13.1455939 L13.8270115,13.1455939 Z M13.8270115,18.7168582 L13.8270115,23.4614943 L15.0266284,23.4614943 C15.85,23.4614943 16.4434866,23.4287356 16.8078544,23.3639847 C17.1726054,23.2984674 17.464751,23.1860153 17.6833333,23.0258621 C17.95,22.8362069 18.1601533,22.5731801 18.3141762,22.2350575 C18.4683908,21.897318 18.5448276,21.5245211 18.5448276,21.1155172 C18.5448276,20.6413793 18.4532567,20.2300766 18.2699234,19.8808429 C18.0862069,19.5308429 17.8197318,19.2586207 17.4697318,19.0630268 C17.2624521,18.9386973 17.0227969,18.85 16.7503831,18.7963602 C16.4779693,18.743295 16.0544061,18.7168582 15.4796935,18.7168582 L13.8270115,18.7168582 L13.8270115,18.7168582 Z" id="Fill-2"></path>
                    <path d="M39.1791188,28.6304598 C38.5568966,27.9551724 37.8934866,27.4561303 37.1885057,27.1333333 C36.4835249,26.8103448 35.7047893,26.648659 34.8517241,26.648659 C34.1645594,26.648659 33.4931034,26.7883142 32.839272,27.0666667 C32.1850575,27.3454023 31.6176245,27.7333333 31.1373563,28.2308429 C30.6398467,28.7457854 30.2670498,29.3224138 30.0180077,29.9588123 C29.7691571,30.5954023 29.644636,31.2992337 29.644636,32.0691571 C29.644636,32.6733716 29.7193487,33.2298851 29.8666667,33.7394636 C30.0149425,34.2490421 30.2367816,34.7170498 30.5333333,35.1431034 C31.0544061,35.883908 31.6961686,36.4538314 32.4572797,36.854023 C33.2176245,37.254023 34.0402299,37.4536398 34.9227969,37.4536398 C35.7521073,37.4536398 36.5220307,37.2814176 37.2331418,36.9383142 C37.9438697,36.5950192 38.5927203,36.0821839 39.1791188,35.401341 L39.1791188,37.4536398 C38.5335249,37.9212644 37.8385057,38.2754789 37.0954023,38.5157088 C36.3521073,38.7555556 35.5831418,38.8756705 34.789272,38.8756705 C34.1021073,38.8756705 33.4329502,38.7735632 32.7810345,38.5685824 C32.1296935,38.3643678 31.5199234,38.0668582 30.951341,37.6758621 C30.0034483,37.0183908 29.2793103,36.209387 28.7783525,35.2498084 C28.2777778,34.2900383 28.0275862,33.2363985 28.0275862,32.0869732 C28.0275862,31.0858238 28.1948276,30.1749042 28.5296935,29.3545977 C28.8645594,28.5337165 29.3750958,27.7894636 30.0622605,27.1197318 C30.7256705,26.4802682 31.460728,26.0017241 32.2659004,25.6850575 C33.0710728,25.3683908 33.9507663,25.2091954 34.9051724,25.2091954 C35.6568966,25.2091954 36.3860153,25.3237548 37.0908046,25.551341 C37.7957854,25.7795019 38.4911877,26.1335249 39.1791188,26.6136015 L39.1791188,28.6304598" id="Fill-3"></path>
                    <path d="M12.5693487,39.26341 L11.756705,38.4507663 L38.7727969,11.4348659 L39.5854406,12.2475096 L12.5693487,39.26341" id="Fill-4"></path>
                </g>
            </g>
        </g>
    </g>
</svg>