<?xml version="1.0" encoding="UTF-8" standalone="no"?>
<svg width="44px" height="44px" viewBox="0 0 44 44" version="1.1" xmlns="http://www.w3.org/2000/svg" xmlns:xlink="http://www.w3.org/1999/xlink" xmlns:sketch="http://www.bohemiancoding.com/sketch/ns">
    <!-- Generator: Sketch 3.3.3 (12072) - http://www.bohemiancoding.com/sketch -->
    <title>facebook</title>
    <desc>Created with Sketch.</desc>
    <defs></defs>
    <g id="Page-1" stroke="none" stroke-width="1" fill="none" fill-rule="evenodd" sketch:type="MSPage">
        <g id="Imported-Layers" sketch:type="MSLayerGroup" transform="translate(-336.000000, 0.000000)" fill="#FFFFFF">
            <path d="M358,0 C345.85,0 336,9.85 336,22 C336,34.15 345.85,44 358,44 C370.15,44 380,34.15 380,22 C380,9.85 370.15,0 358,0 L358,0 Z M358,42 C346.954,42 338,33.046 338,22 C338,10.955 346.954,2 358,2 C369.046,2 378,10.955 378,22 C378,33.046 369.046,42 358,42 L358,42 Z M359.988,17.25 C359.988,16.441 360.071,16.008 361.316,16.008 L362.979,16.008 L362.979,12.998 L360.317,12.998 C357.121,12.998 355.995,14.504 355.995,17.035 L355.995,18.99 L354.002,18.99 L354.002,22 L355.995,22 L355.995,31.002 L359.983,31.002 L359.983,22 L362.646,22 L362.999,18.99 L359.983,18.99 L359.988,17.25 L359.988,17.25 Z" id="facebook" sketch:type="MSShapeGroup"></path>
        </g>
    </g>
</svg>