<?xml version="1.0" encoding="UTF-8" standalone="no"?>
<svg width="32px" height="32px" viewBox="0 0 32 32" version="1.1" xmlns="http://www.w3.org/2000/svg" xmlns:xlink="http://www.w3.org/1999/xlink" xmlns:sketch="http://www.bohemiancoding.com/sketch/ns">
    <!-- Generator: Sketch 3.3.2 (12043) - http://www.bohemiancoding.com/sketch -->
    <title>Instagram</title>
    <desc>Created with Sketch.</desc>
    <defs></defs>
    <g id="Page-1" stroke="none" stroke-width="1" fill="none" fill-rule="evenodd" sketch:type="MSPage">
        <g id="Homepage" sketch:type="MSArtboardGroup" transform="translate(-694.000000, -567.000000)" stroke-linecap="round" stroke="#FFFFFF" stroke-width="2" stroke-linejoin="round">
            <g id="Hero" sketch:type="MSLayerGroup">
                <g id="Social-icon" transform="translate(556.000000, 568.000000)" sketch:type="MSShapeGroup">
                    <path d="M139.037148,15.9001391 L139.000002,1.86195979 C138.998626,0.855768667 139.813118,0.0389836208 140.819309,0.0376077898 L167.137582,1.74046395e-06 C168.144231,-0.00137409061 168.961016,0.813117904 168.962392,1.81976764 L168.999998,28.1380402 C169.001374,29.1442313 168.186423,29.9610164 167.180232,29.9628508 L140.86196,29.9999983 C139.855769,30.0013741 139.038525,29.1868821 139.037149,28.180691 L139.037148,20.9978693 M160.931313,12.4315413 C162.845955,16.1539908 161.375153,20.7395026 157.652651,22.6541175 C153.930612,24.5687323 149.344571,23.0984158 147.429928,19.3759663 C145.515751,15.6535168 146.986088,11.0675408 150.708591,9.15292593 C154.431093,7.2383111 159.016671,8.7095561 160.931313,12.4315413 L160.931313,12.4315413 M165.746988,7.08748012 C165.746988,7.59515307 165.331448,8.01022271 164.823775,8.01022271 L161.971405,8.01022271 C161.463732,8.01022271 161.048193,7.59515307 161.048193,7.08748012 L161.048193,4.23464019 C161.048193,3.72696724 161.463732,3.31142753 161.971405,3.31142753 L164.823775,3.31142753 C165.331448,3.31142753 165.746988,3.72696724 165.746988,4.23464019 L165.746988,7.08748012 M139.062182,15.9036145 L146.590361,15.9036145 L139.062182,15.9036145 Z M168.977065,15.9036145 L161.771084,15.9036145 L168.638554,15.9036145 M156.563131,20.0287018 C154.221992,21.2507008 151.338112,20.3122303 150.134247,17.9366856 C149.532314,16.749134 149.462241,15.4237929 149.835674,14.2424242" id="Instagram"></path>
                </g>
            </g>
        </g>
    </g>
</svg>