<?xml version="1.0" encoding="UTF-8" standalone="no"?>
<svg width="44px" height="44px" viewBox="0 0 44 44" version="1.1" xmlns="http://www.w3.org/2000/svg" xmlns:xlink="http://www.w3.org/1999/xlink" xmlns:sketch="http://www.bohemiancoding.com/sketch/ns">
    <!-- Generator: Sketch 3.3.3 (12072) - http://www.bohemiancoding.com/sketch -->
    <title>instagram</title>
    <desc>Created with Sketch.</desc>
    <defs></defs>
    <g id="Page-1" stroke="none" stroke-width="1" fill="none" fill-rule="evenodd" sketch:type="MSPage">
        <g id="Imported-Layers" sketch:type="MSLayerGroup" transform="translate(-252.000000, -84.000000)" fill="#FFFFFF">
            <path d="M280,96 L268,96 C265.791,96 264,97.791 264,100 L264,112 C264,114.209 265.791,116 268,116 L280,116 C282.209,116 284,114.209 284,112 L284,100 C284,97.791 282.209,96 280,96 L280,96 Z M278,99 L281,99 L281,102 L278,102 L278,99 Z M274,102 C276.209,102 278,103.791 278,106 C278,108.209 276.209,110 274,110 C271.791,110 270,108.209 270,106 C270,103.791 271.791,102 274,102 L274,102 Z M282,112 C282,113.105 281.104,114 280,114 L268,114 C266.895,114 266,113.105 266,112 L266,105 L268.101,105 C268.046,105.327 268,105.658 268,106 C268,109.315 270.686,112 274,112 C277.313,112 280,109.315 280,106 C280,105.658 279.955,105.327 279.899,105 L282,105 L282,112 L282,112 Z M274,84 C261.85,84 252,93.85 252,106 C252,118.15 261.85,128 274,128 C286.15,128 296,118.15 296,106 C296,93.85 286.15,84 274,84 L274,84 Z M274,126 C262.954,126 254,117.046 254,106 C254,94.955 262.954,86 274,86 C285.046,86 294,94.955 294,106 C294,117.046 285.046,126 274,126 L274,126 Z" id="instagram" sketch:type="MSShapeGroup"></path>
        </g>
    </g>
</svg>