<?xml version="1.0" encoding="UTF-8" standalone="no"?>
<svg width="44px" height="44px" viewBox="0 0 44 44" version="1.1" xmlns="http://www.w3.org/2000/svg" xmlns:xlink="http://www.w3.org/1999/xlink" xmlns:sketch="http://www.bohemiancoding.com/sketch/ns">
    <!-- Generator: Sketch 3.3.3 (12072) - http://www.bohemiancoding.com/sketch -->
    <title>tumblr</title>
    <desc>Created with Sketch.</desc>
    <defs></defs>
    <g id="Page-1" stroke="none" stroke-width="1" fill="none" fill-rule="evenodd" sketch:type="MSPage">
        <g id="Imported-Layers" sketch:type="MSLayerGroup" transform="translate(0.000000, -84.000000)" fill="#FFFFFF">
            <path d="M23.612,111.074 C23.328,110.917 23.105,110.701 23,110.437 C22.986,110.393 22.998,104.978 22.998,104.978 L27.002,104.979 L27.002,102 L23.002,102 L23.002,98 L20.455,98.014 C20.347,98.838 20.148,99.518 19.86,100.051 C19.572,100.585 19.19,101.042 18.714,101.423 C18.238,101.804 17.666,102.096 16.998,102.3 L17,105 L19.002,104.979 L19.002,110.167 C19.002,110.897 19.084,111.455 19.246,111.84 C19.409,112.225 19.701,112.587 20.123,112.929 C20.545,113.27 21.055,113.533 21.651,113.718 C22.248,113.902 22.893,114 23.67,114 C24.354,114 24.909,113.93 25.498,113.8 C26.087,113.671 26.932,113.445 27.659,113.123 L27.669,110.666 C26.817,111.193 25.764,111.392 24.903,111.392 C24.418,111.392 23.988,111.285 23.612,111.074 L23.612,111.074 Z M22,84 C9.85,84 0,93.85 0,106 C0,118.15 9.85,128 22,128 C34.15,128 44,118.15 44,106 C44,93.85 34.15,84 22,84 L22,84 Z M22,126 C10.954,126 2,117.046 2,106 C2,94.955 10.954,86 22,86 C33.046,86 42,94.955 42,106 C42,117.046 33.046,126 22,126 L22,126 Z" id="tumblr" sketch:type="MSShapeGroup"></path>
        </g>
    </g>
</svg>