<?xml version="1.0" encoding="UTF-8" standalone="no"?>
<svg width="38px" height="32px" viewBox="0 0 38 32" version="1.1" xmlns="http://www.w3.org/2000/svg" xmlns:xlink="http://www.w3.org/1999/xlink" xmlns:sketch="http://www.bohemiancoding.com/sketch/ns">
    <!-- Generator: Sketch 3.3.2 (12043) - http://www.bohemiancoding.com/sketch -->
    <title>Twitter</title>
    <desc>Created with Sketch.</desc>
    <defs></defs>
    <g id="Page-1" stroke="none" stroke-width="1" fill="none" fill-rule="evenodd" sketch:type="MSPage">
        <g id="Homepage" sketch:type="MSArtboardGroup" transform="translate(-625.000000, -567.000000)" stroke-linecap="round" stroke="#FFFFFF" stroke-width="2" stroke-linejoin="round">
            <g id="Hero" sketch:type="MSLayerGroup">
                <g id="Social-icon" transform="translate(556.000000, 568.000000)" sketch:type="MSShapeGroup">
                    <path d="M78.3577706,25.921749 C74.0306655,27.7765877 70.5759808,26.6628356 70,26.5877186 C73.2638912,28.7427141 77.1517616,30 81.3144229,30 C94.9111696,30 102.340122,18.4615385 102.340122,8.45004515 C102.340122,8.13110582 102.325722,7.79738938 102.313723,7.47721862 C103.756075,6.40341515 105.004033,5.07347508 106,3.56005254 C104.678844,4.16221985 103.252092,4.56859043 101.764141,4.74222149 C103.28929,3.80510631 104.452052,2.32862655 105.004033,0.554141696 C103.576081,1.42845415 101.992134,2.05648141 100.31219,2.40128068 C98.9682344,0.923569493 97.0482984,0 94.9231692,0 C90.8457051,0 87.5458151,3.39996716 87.5458151,7.57326985 C87.5458151,8.16435432 87.6058131,8.74435596 87.7234092,9.29726623 C81.5940135,8.98940974 76.1461951,5.97364748 72.5091164,1.39151137 C71.8731376,2.51210902 71.5131496,3.80510631 71.5131496,5.19784911 C71.5131496,7.82078647 72.8091064,10.1358673 74.7878404,11.5015188 C73.5758808,11.4522617 72.4491184,11.1197767 71.4531516,10.5533207 L71.441152,10.6518348 C71.441152,14.3104014 73.9970668,17.3754207 77.3677544,18.0650193 C76.7557748,18.2398818 76.0957968,18.3383959 75.4226192,18.3383959 C74.9450352,18.3383959 74.4878504,18.2891388 74.0306656,18.202939 C74.577066,19.9326195 75.7625822,21.41378 77.2565081,22.359354 C78.3577253,23.0563648 79.62652,23.4623591 80.9304357,23.4623594" id="Twitter"></path>
                </g>
            </g>
        </g>
    </g>
</svg>