<?xml version="1.0" encoding="UTF-8" standalone="no"?>
<svg width="44px" height="44px" viewBox="0 0 44 44" version="1.1" xmlns="http://www.w3.org/2000/svg" xmlns:xlink="http://www.w3.org/1999/xlink" xmlns:sketch="http://www.bohemiancoding.com/sketch/ns">
    <!-- Generator: Sketch 3.3.3 (12072) - http://www.bohemiancoding.com/sketch -->
    <title>twitter</title>
    <desc>Created with Sketch.</desc>
    <defs></defs>
    <g id="Page-1" stroke="none" stroke-width="1" fill="none" fill-rule="evenodd" sketch:type="MSPage">
        <g id="Imported-Layers" sketch:type="MSLayerGroup" transform="translate(-252.000000, 0.000000)" fill="#FFFFFF">
            <path d="M274,0 C261.85,0 252,9.85 252,22 C252,34.15 261.85,44 274,44 C286.15,44 296,34.15 296,22 C296,9.85 286.15,0 274,0 L274,0 Z M274,42 C262.954,42 254,33.046 254,22 C254,10.955 262.954,2 274,2 C285.046,2 294,10.955 294,22 C294,33.046 285.046,42 274,42 L274,42 Z M284.447,14.297 C283.654,14.76 282.776,15.096 281.842,15.277 C281.094,14.492 280.027,14.002 278.847,14.002 C276.581,14.002 274.744,15.81 274.744,18.04 C274.744,18.356 274.779,18.664 274.85,18.961 C271.439,18.792 268.416,17.184 266.393,14.74 C266.039,15.338 265.837,16.03 265.837,16.771 C265.837,18.172 266.561,19.408 267.662,20.133 C266.99,20.111 266.357,19.93 265.804,19.627 C265.803,19.644 265.803,19.66 265.803,19.678 C265.803,21.635 267.218,23.267 269.095,23.639 C268.75,23.731 268.389,23.779 268.014,23.779 C267.75,23.779 267.492,23.754 267.242,23.707 C267.764,25.312 269.279,26.479 271.074,26.512 C269.67,27.596 267.901,28.24 265.978,28.24 C265.647,28.24 265.321,28.222 265,28.185 C266.816,29.33 268.973,29.999 271.29,29.999 C278.838,29.999 282.965,23.846 282.965,18.508 C282.965,18.333 282.961,18.159 282.953,17.986 C283.754,17.416 284.449,16.705 285,15.896 C284.264,16.217 283.474,16.434 282.644,16.531 C283.49,16.031 284.141,15.24 284.447,14.297 L284.447,14.297 Z" id="twitter" sketch:type="MSShapeGroup"></path>
        </g>
    </g>
</svg>