<?xml version="1.0" encoding="utf-8"?>
<!-- Generator: Adobe Illustrator 19.1.0, SVG Export Plug-In . SVG Version: 6.00 Build 0)  -->
<svg version="1.1" id="Layer_1" xmlns="http://www.w3.org/2000/svg" xmlns:xlink="http://www.w3.org/1999/xlink" x="0px" y="0px"
	 viewBox="202 297.7 1000 246.2" style="enable-background:new 202 297.7 1000 246.2;" xml:space="preserve">
<style type="text/css">
	.st0{fill:#FFFFFF;}
</style>
<path class="st0" d="M1133.7,416.2c1.2-10.3,10.1-18.4,21.1-18.4c10.1,0,18.4,8.6,19.2,18.4H1133.7z M1113.6,425.3
	c0,24,16.5,43.6,41.7,43.6c13.9,0,24.7-5.3,30.7-10.3c2.4-2.2,1.9-3.8,0.5-5.5l-5.7-7.9c-1.7-2.2-3.1-1.2-5.5,0.2
	c-4.1,2.6-11,6-18.4,6c-13.4,0-23.2-11-24-22.3h56.5c1.9,0,3.6-1.4,3.8-3.6c0.2-1.4,0.5-4.1,0.5-5.5c0-22.3-16.5-38.3-38.3-38.3
	C1130.1,381.7,1113.6,401.8,1113.6,425.3 M1000.8,499.5c0-9.3,10.1-12.7,11.5-13.2c6-0.5,12.2-0.5,18.2-0.5
	c13.4,0,15.6,8.6,15.6,11.7c0,10.1-11,16.3-23.7,16.3C1009.9,514.1,1000.8,507.9,1000.8,499.5 M1022.8,437.5
	c-10.5,0-18.2-7.9-18.2-19.2s7.7-19.2,18.2-19.2c10.3,0,17.5,7.9,17.5,19.2C1040.3,429.6,1033.1,437.5,1022.8,437.5 M978.5,461.9
	c0,13.9,11,19.4,15.3,20.8v0.7c-2.2,1.2-12.2,6.9-12.2,19.4c0,13.4,11.7,28.5,41.2,28.5c27.5,0,44.3-16.3,44.3-34.5
	c0-18-14.6-27.8-32.6-27.8h-28.3c-6.2,0-10.1-3.8-10.1-8.6c0-6.7,6.9-10.1,8.6-10.1s7.4,3.4,18,3.4c21.6,0,35.2-16.3,35.2-33.8
	c0-15.6-8.9-22.3-8.9-22.3l11.5-3.1c1.4-0.2,2.4-2.2,2.4-3.6v-5.3c0-2.4-1.7-3.8-3.8-3.8h-36.4c-21.1,0-35.7,17-35.7,36.4
	c0,12.5,6.5,20.1,6.5,20.1S978.5,445.9,978.5,461.9 M881.8,462.9c0,2.2,1.9,3.8,3.8,3.8h10.1c3.4,0,5.5-0.5,5.5-3.8v-52.7
	c0.7-1.4,6.7-10.1,18.7-10.1c2.6,0,5.7,0.7,6.9,1.4c1.9,0.7,3.8,0.5,5-1.9l5-10.1c2.4-5.5-7.2-7.7-15.1-7.7
	c-15.1,0-22.8,10.1-24.2,12l-2.4-6.9c-0.5-1.7-2.2-2.9-3.6-2.9h-6c-2.2,0-3.8,1.9-3.8,3.8L881.8,462.9L881.8,462.9z M768.5,440.8
	c0-8.6,6.9-13.7,16.8-13.7c7.4,0,13.2,2.4,14.6,3.4v13.2c-2.4,4.1-10.3,10.3-18.7,10.3C773.5,454.3,768.5,448.3,768.5,440.8
	 M750.5,441.1c0,17.2,11.3,27.8,26.8,27.8c12.9,0,21.1-6.2,25.6-10.5l2.2,5.5c0.7,2.2,1.7,2.9,3.6,2.9h5.7c2.2,0,3.8-1.9,3.8-3.8
	v-44.3c0-20.8-2.4-36.9-29-36.9c-15.3,0-27.3,4.1-28.7,4.8c-1.9,0.7-3.4,2.2-2.6,4.8l1.7,7.7c0.7,2.4,2.2,3.8,4.6,3.4
	c4.3-1.2,13.7-3.8,23.2-3.8c10.5,0,13.2,5.3,12.9,18.2c0,0-7.7-2.4-16.3-2.4C762.5,414.3,750.5,426,750.5,441.1 M672.4,462.9
	c0,2.2,1.9,3.8,3.8,3.8H688c2.2,0,3.8-1.9,3.8-3.8V325.4c0-2.2-1.9-3.8-3.8-3.8h-11.7c-2.2,0-3.8,1.9-3.8,3.8L672.4,462.9
	L672.4,462.9z"/>
<path d="M580.2,512.5c8.1-14.9,14.4-30.9,18.4-47.4c4.1-16.8,6.2-34.3,6.2-52.9c0-19.6-1.9-37.8-6-54.4
	c-4.1-16.5-10.3-32.1-18.4-46.5l-10.3,5c6.9,14.4,12.2,29.5,15.6,45c3.4,15.6,5,32.6,5,50.8c0,18.9-1.7,35.9-5,51.5
	c-3.4,15.6-8.6,29.9-15.6,43.1L580.2,512.5z M432.4,462.9c0,2.2,1.9,3.8,3.8,3.8H447c3.6,0,4.8-1.2,4.8-3.8v-50.5
	c1-2.9,10.1-12.5,23-12.5c10.8,0,17.2,7.2,17.2,20.6v42.6c0,2.2,1.7,3.8,3.8,3.8h11.7c2.2,0,3.8-1.9,3.8-3.8v-41.9
	c0-21.6-9.3-39.5-34.7-39.5c-16.5,0-27.5,10.1-29,11.7l-2.4-6.9c-0.5-1.4-1.7-2.4-3.4-2.4h-6c-2.2,0-3.8,1.9-3.8,4.1v74.7
	L432.4,462.9L432.4,462.9z M315.5,416.2c1.2-10.3,10.1-18.4,21.1-18.4c10.1,0,18.4,8.6,19.2,18.4H315.5z M295.4,425.3
	c0,24,16.5,43.6,41.7,43.6c13.9,0,24.7-5.3,30.7-10.3c2.4-2.2,1.9-3.8,0.5-5.5l-5.7-7.7c-1.7-2.2-3.1-1.2-5.5,0.2
	c-4.1,2.6-11,6-18.4,6c-13.4,0-23.2-11-24-22.3h56.5c1.9,0,3.6-1.4,3.8-3.6c0.2-1.4,0.5-4.1,0.5-5.5c0-22.3-16.5-38.6-38.3-38.6
	C311.9,381.7,295.4,401.8,295.4,425.3 M235.1,463.4c-3.4-15.6-5-32.6-5-51.5c0-18.2,1.7-35.2,5-50.8c3.4-15.6,8.6-30.7,15.6-45
	l-10.3-4.8c-8.2,14.3-14.4,29.7-18.5,46.4c-4.1,16.5-6.2,34.5-6.2,54.1c0,18.4,2.2,36.2,6.2,52.9c4.1,16.8,10.3,32.6,18.2,47.4
	l10.5-5.7C243.7,493.3,238.4,478.9,235.1,463.4"/>
<path class="st0" d="M580.2,512.5c8.1-14.9,14.4-30.9,18.4-47.4c4.1-16.8,6.2-34.3,6.2-52.9c0-19.6-1.9-37.8-6-54.4
	c-4.1-16.5-10.3-32.1-18.4-46.5l-10.3,5c6.9,14.4,12.2,29.5,15.6,45c3.4,15.6,5,32.6,5,50.8c0,18.9-1.7,35.9-5,51.5
	c-3.4,15.6-8.6,29.9-15.6,43.1L580.2,512.5z M432.4,462.9c0,2.2,1.9,3.8,3.8,3.8H447c3.6,0,4.8-1.2,4.8-3.8v-50.5
	c1-2.9,10.1-12.5,23-12.5c10.8,0,17.2,7.2,17.2,20.6v42.6c0,2.2,1.7,3.8,3.8,3.8h11.7c2.2,0,3.8-1.9,3.8-3.8v-41.9
	c0-21.6-9.3-39.5-34.7-39.5c-16.5,0-27.5,10.1-29,11.7l-2.4-6.9c-0.5-1.4-1.7-2.4-3.4-2.4h-6c-2.2,0-3.8,1.9-3.8,4.1v74.7
	L432.4,462.9L432.4,462.9z M315.5,416.2c1.2-10.3,10.1-18.4,21.1-18.4c10.1,0,18.4,8.6,19.2,18.4H315.5z M295.4,425.3
	c0,24,16.5,43.6,41.7,43.6c13.9,0,24.7-5.3,30.7-10.3c2.4-2.2,1.9-3.8,0.5-5.5l-5.7-7.7c-1.7-2.2-3.1-1.2-5.5,0.2
	c-4.1,2.6-11,6-18.4,6c-13.4,0-23.2-11-24-22.3h56.5c1.9,0,3.6-1.4,3.8-3.6c0.2-1.4,0.5-4.1,0.5-5.5c0-22.3-16.5-38.6-38.3-38.6
	C311.9,381.7,295.4,401.8,295.4,425.3z M235.1,463.4c-3.4-15.6-5-32.6-5-51.5c0-18.2,1.7-35.2,5-50.8c3.4-15.6,8.6-30.7,15.6-45
	l-10.3-4.8c-8.2,14.3-14.4,29.7-18.5,46.4c-4.1,16.5-6.2,34.5-6.2,54.1c0,18.4,2.2,36.2,6.2,52.9c4.1,16.8,10.3,32.6,18.2,47.4
	l10.5-5.7C243.7,493.3,238.4,478.9,235.1,463.4z"/>
</svg>
