<?xml version="1.0" encoding="UTF-8" standalone="no"?>
<svg width="32px" height="131px" viewBox="0 0 32 131" version="1.1" xmlns="http://www.w3.org/2000/svg" xmlns:xlink="http://www.w3.org/1999/xlink">
    <!-- Generator: Sketch 3.6.1 (26313) - http://www.bohemiancoding.com/sketch -->
    <title>conf</title>
    <desc>Created with Sketch.</desc>
    <defs></defs>
    <g id="Page-1" stroke="none" stroke-width="1" fill="none" fill-rule="evenodd">
        <g id="conf" transform="translate(1.000000, 0.000000)" stroke-width="2" stroke="#000000">
            <g id="Group">
                <rect id="Rectangle-path" x="3.4" y="45.7" width="23.1" height="7.4"></rect>
                <rect id="Rectangle-path" x="9" y="24.7" width="11.8" height="8.8"></rect>
                <path d="M3.4,45.7 L9,33.6" id="Shape"></path>
                <path d="M26.5,45.7 L20.9,33.6" id="Shape"></path>
                <rect id="Rectangle-path" x="3.4" y="81.6" width="23.1" height="48.2"></rect>
                <path d="M14.8,6.2 L9,24.7 L20.9,24.7 L14.8,6.2 Z" id="Shape"></path>
                <path d="M14.8,0.5 L14.8,6.2" id="Shape"></path>
                <ellipse id="Oval" cx="14.8" cy="4.2" rx="1" ry="1"></ellipse>
                <path d="M14.9,48.5 L14.9,53.1" id="Shape"></path>
                <path d="M18.8,48.5 L18.8,53.1" id="Shape"></path>
                <path d="M22.6,48.5 L22.6,53.1" id="Shape"></path>
                <path d="M26.5,47.8 L26.5,53.1" id="Shape"></path>
                <path d="M11.1,48.5 L11.1,53.1" id="Shape"></path>
                <path d="M14.9,27.6 L14.9,30.8" id="Shape"></path>
                <path d="M18.1,27.6 L18.1,30.8" id="Shape"></path>
                <path d="M11.8,27.6 L11.8,30.8" id="Shape"></path>
                <path d="M7.2,48.5 L7.2,53.1" id="Shape"></path>
                <path d="M14.9,84.8 L14.9,126.7" id="Shape"></path>
                <path d="M18.8,84.8 L18.8,126.7" id="Shape"></path>
                <path d="M22.6,84.8 L22.6,126.7" id="Shape"></path>
                <path d="M11.1,84.8 L11.1,126.7" id="Shape"></path>
                <path d="M7.2,84.8 L7.2,126.7" id="Shape"></path>
                <path d="M3.4,47.8 L3.4,53.1" id="Shape"></path>
                <g transform="translate(0.000000, 53.000000)">
                    <rect id="Rectangle-path" x="0.7" y="0.1" width="28.5" height="28.5"></rect>
                    <g transform="translate(4.000000, 3.000000)">
                        <rect id="Rectangle-path" x="7.10542736e-15" y="0.4" width="21.8" height="21.8"></rect>
                        <g transform="translate(3.000000, 3.000000)">
                            <ellipse id="Oval" cx="7.9" cy="8.3" rx="7.7" ry="7.7"></ellipse>
                            <path d="M6.3,11.5 L7.9,8.3 L7.9,2.5" id="Shape"></path>
                        </g>
                    </g>
                </g>
            </g>
        </g>
    </g>
</svg>