<?xml version="1.0" encoding="UTF-8" standalone="no"?>
<svg width="94px" height="91px" viewBox="0 0 94 91" version="1.1" xmlns="http://www.w3.org/2000/svg" xmlns:xlink="http://www.w3.org/1999/xlink">
    <!-- Generator: Sketch 3.6.1 (26313) - http://www.bohemiancoding.com/sketch -->
    <title>dinner</title>
    <desc>Created with Sketch.</desc>
    <defs></defs>
    <g id="Page-1" stroke="none" stroke-width="1" fill="none" fill-rule="evenodd">
        <g id="dinner" transform="translate(0.000000, 1.000000)" stroke-width="2" stroke="#000000">
            <g id="Group">
                <path d="M43.1,66.2 L93.9,66.2" id="Shape"></path>
                <path d="M54.7,66.2 L51.2,89" id="Shape"></path>
                <path d="M81.6,66.2 L85.1,89" id="Shape"></path>
                <path d="M33.6,89.4 L33.6,34" id="Shape"></path>
                <path d="M33.6,34 L55.5,10.4" id="Shape"></path>
                <path d="M45.8,20.9 L41,7.3" id="Shape"></path>
                <path d="M33.6,49.3 L52.4,32.1 L54.7,24.9" id="Shape"></path>
                <path d="M43.4,40.3 L64.5,43.7" id="Shape"></path>
                <path d="M56.4,42.4 L67.5,34" id="Shape"></path>
                <path d="M64.5,35.9 L66.1,28.5" id="Shape"></path>
                <path d="M50.9,15.3 L58.4,16.5" id="Shape"></path>
                <path d="M44.4,16.9 L36.4,12.5" id="Shape"></path>
                <path d="M37.2,28.9 L34.7,18.7" id="Shape"></path>
                <g transform="translate(0.000000, 10.000000)" id="Shape">
                    <path d="M33.6,79.4 L33.6,24"></path>
                    <path d="M28.7,32 L18.6,13.3"></path>
                    <path d="M18.6,13.3 L22.4,0.4"></path>
                    <path d="M33.6,33.7 L17.1,27.9"></path>
                    <path d="M22.6,29.8 L14.3,35.7"></path>
                    <path d="M17.1,33.7 L0.9,27.2"></path>
                    <path d="M22.6,20.7 L5.2,11.4"></path>
                    <path d="M18.6,13.3 L14.3,9.9"></path>
                    <path d="M33.6,24 L28.7,18.9"></path>
                </g>
                <path d="M26.6,16.2 L36.4,25.6" id="Shape"></path>
                <path d="M41,26 L48.5,26.7" id="Shape"></path>
                <path d="M10.5,41 L5.2,34" id="Shape"></path>
                <path d="M14.7,27.2 L10.1,29.8" id="Shape"></path>
                <path d="M58.4,31.4 L52.4,32.1" id="Shape"></path>
                <path d="M49.8,41.4 L53,47.1" id="Shape"></path>
                <path d="M61.3,52.8 C61.3,52.8 58.8,53.5 56.2,51.7 C53.5,49.8 53.4,47.3 53.4,47.3 C53.4,47.3 55.9,46.6 58.5,48.4 C61.2,50.3 61.3,52.8 61.3,52.8 L61.3,52.8 Z" id="Shape"></path>
                <path d="M39.7,31.7 C39.7,31.7 42.1,32.7 43,35.8 C43.9,38.9 42.4,41 42.4,41 C42.4,41 40,40 39.1,36.9 C38.2,33.8 39.7,31.7 39.7,31.7 L39.7,31.7 Z" id="Shape"></path>
                <path d="M6.5,14 C6.5,14 8.9,15 9.8,18.1 C10.7,21.2 9.2,23.3 9.2,23.3 C9.2,23.3 6.8,22.3 5.9,19.2 C5,16.1 6.5,14 6.5,14 L6.5,14 Z" id="Shape"></path>
                <path d="M13.6,7.1 C13.6,7.1 16.2,6.7 18.5,8.9 C20.8,11.1 20.7,13.7 20.7,13.7 C20.7,13.7 18.1,14.1 15.8,11.9 C13.5,9.7 13.6,7.1 13.6,7.1 L13.6,7.1 Z" id="Shape"></path>
                <path d="M32.9,9.2 C32.9,9.2 34.2,11.4 33,14.4 C31.8,17.4 29.4,18.2 29.4,18.2 C29.4,18.2 28.1,16 29.2,13 C30.4,10 32.9,9.2 32.9,9.2 L32.9,9.2 Z" id="Shape"></path>
                <path d="M47.4,7.1 C47.4,7.1 49.7,8.2 50.5,11.4 C51.3,14.6 49.6,16.6 49.6,16.6 C49.6,16.6 47.3,15.5 46.5,12.3 C45.8,9.1 47.4,7.1 47.4,7.1 L47.4,7.1 Z" id="Shape"></path>
                <path d="M66.6,13.2 C66.6,13.2 65.7,15.6 62.6,16.7 C59.5,17.7 57.4,16.3 57.4,16.3 C57.4,16.3 58.3,13.9 61.4,12.8 C64.4,11.8 66.6,13.2 66.6,13.2 L66.6,13.2 Z" id="Shape"></path>
                <path d="M18.4,37.5 C18.4,37.5 16.2,38.8 13.2,37.7 C10.2,36.5 9.4,34.1 9.4,34.1 C9.4,34.1 11.6,32.8 14.6,33.9 C17.6,35 18.4,37.5 18.4,37.5 L18.4,37.5 Z" id="Shape"></path>
                <path d="M72.5,22.8 C72.5,22.8 72.3,25.4 69.6,27.2 C66.9,29 64.5,28.2 64.5,28.2 C64.5,28.2 64.7,25.6 67.4,23.8 C70.1,22 72.5,22.8 72.5,22.8 L72.5,22.8 Z" id="Shape"></path>
                <path d="M63,21.8 C63,21.8 62,24.2 58.9,25 C55.8,25.8 53.7,24.3 53.7,24.3 C53.7,24.3 54.7,21.9 57.8,21.1 C60.9,20.3 63,21.8 63,21.8 L63,21.8 Z" id="Shape"></path>
                <path d="M25.3,20.2 C25.3,20.2 27.7,21.2 28.5,24.3 C29.4,27.4 27.8,29.5 27.8,29.5 C27.8,29.5 25.4,28.5 24.6,25.4 C23.7,22.3 25.3,20.2 25.3,20.2 L25.3,20.2 Z" id="Shape"></path>
                <path d="M34.5,0.8 C34.5,0.8 37.1,0.5 39.4,2.8 C41.7,5.1 41.4,7.6 41.4,7.6 C41.4,7.6 38.8,7.9 36.5,5.6 C34.2,3.3 34.5,0.8 34.5,0.8 L34.5,0.8 Z" id="Shape"></path>
            </g>
        </g>
    </g>
</svg>