<?xml version="1.0" encoding="UTF-8" standalone="no"?>
<svg width="77px" height="84px" viewBox="0 0 77 84" version="1.1" xmlns="http://www.w3.org/2000/svg" xmlns:xlink="http://www.w3.org/1999/xlink">
    <!-- Generator: Sketch 3.6.1 (26313) - http://www.bohemiancoding.com/sketch -->
    <title>enlarge</title>
    <desc>Created with Sketch.</desc>
    <defs></defs>
    <g id="Page-1" stroke="none" stroke-width="1" fill="none" fill-rule="evenodd">
        <g id="enlarge" transform="translate(1.000000, 1.000000)" stroke-width="2" stroke="#000000">
            <g id="Group">
                <path d="M7.5,81.1 L7.5,0.5" id="Shape"></path>
                <path d="M15.1,10.6 L52.8,10.6" id="Shape"></path>
                <path d="M15.1,20.6 L52.8,20.6" id="Shape"></path>
                <path d="M15.1,30.7 L52.8,30.7" id="Shape"></path>
                <path d="M15.1,40.8 L52.8,40.8" id="Shape"></path>
                <path d="M15.1,50.9 L46.1,50.9" id="Shape"></path>
                <path d="M47.5,60.9 L52.8,60.9" id="Shape"></path>
                <path d="M15.1,60.9 L36,60.9" id="Shape"></path>
                <path d="M15.1,71.2 L31.1,71.2" id="Shape"></path>
                <path d="M59.5,49 L59.5,81.1 L0.8,81.1 L0.8,0.5 L59.5,0.5 L59.5,37.4" id="Shape"></path>
                <g transform="translate(31.000000, 28.000000)" id="Shape">
                    <path d="M0.1,43.6 L0.9,37 L37.1,0.8 C38,-0.1 39.5,4.77395901e-15 40.5,1 L42.6,3.1 C43.6,4.1 43.7,5.7 42.8,6.5 L6.6,42.7 L0.1,43.6 L0.1,43.6 Z"></path>
                    <path d="M35.8,2.1 L41.6,7.9"></path>
                    <path d="M0.9,37.1 C0.9,37.1 1.9,42.2 6.7,42.9"></path>
                </g>
            </g>
        </g>
    </g>
</svg>