<?xml version="1.0" encoding="UTF-8" standalone="no"?>
<svg width="57px" height="109px" viewBox="0 0 57 109" version="1.1" xmlns="http://www.w3.org/2000/svg" xmlns:xlink="http://www.w3.org/1999/xlink">
    <!-- Generator: Sketch 3.6.1 (26313) - http://www.bohemiancoding.com/sketch -->
    <title>leadership</title>
    <desc>Created with Sketch.</desc>
    <defs></defs>
    <g id="Page-1" stroke="none" stroke-width="1" fill="none" fill-rule="evenodd">
        <g id="leadership" transform="translate(1.000000, 1.000000)" stroke-width="2" stroke="#000000">
            <g id="Group">
                <path d="M12.4,63.8 C11.2,65.7 4.2,77.2 3.2,78.9 C2.2,80.6 0.6,83 0.6,86.9 L0.6,105.1 L15.5,86.5" id="Shape"></path>
                <g transform="translate(10.000000, 0.000000)" id="Shape">
                    <path d="M17.8,93.6 C24.7,93.6 28.3,94.3 29.8,87.7 C31.4,80.3 34.9,55.6 34.9,32.9 C34.9,9.8 17.8,0.2 17.8,0.2 C17.8,0.2 0.7,9.8 0.7,32.9 C0.7,55.6 4.2,80.3 5.8,87.7 C7.3,94.3 10.9,93.6 17.8,93.6 L17.8,93.6 Z"></path>
                    <path d="M33.2,63.8 C34.4,65.7 41.4,77.2 42.4,78.9 C43.4,80.6 45,83 45,86.9 L45,105.1 L30,86.6"></path>
                </g>
                <path id="Shape" d="M31.9,13.3 C30.5,13.3 29.1,13.4 27.8,13.4 C23.7,13.4 19.7,13.3 15.8,13"></path>
                <path id="Shape" d="M39.8,12.9 C38.4,13 37,13.1 35.6,13.2"></path>
                <circle id="Oval" cx="27.8" cy="33.1" r="10.8"></circle>
                <path d="M27.8,63.8 L27.8,105.2" id="Shape"></path>
                <path d="M29.3,27.8 C31.7,28.1 34.1,30.5 34.1,33" id="Shape"></path>
            </g>
        </g>
    </g>
</svg>