<?xml version="1.0" encoding="UTF-8" standalone="no"?>
<svg width="377px" height="160px" viewBox="0 0 377 160" version="1.1" xmlns="http://www.w3.org/2000/svg" xmlns:xlink="http://www.w3.org/1999/xlink">
    <!-- Generator: Sketch 3.6.1 (26313) - http://www.bohemiancoding.com/sketch -->
    <title>Artboard 1</title>
    <desc>Created with Sketch.</desc>
    <defs></defs>
    <g id="Page-1" stroke="none" stroke-width="1" fill="none" fill-rule="evenodd" stroke-linecap="round" stroke-linejoin="round">
        <g id="Artboard-1" stroke="#221F20" stroke-width="1.5">
            <g id="Group" transform="translate(-208.000000, 20.000000)">
                <g id="Page-1" transform="translate(228.000000, 0.000000)">
                    <path d="M102.8008,22.0565 L96.8758,22.1595" id="Stroke-1"></path>
                    <path d="M101.0652,14.0526 L95.6302,16.4156" id="Stroke-2"></path>
                    <path d="M96.3925,7.3235 L92.2755,11.5865" id="Stroke-3"></path>
                    <path d="M89.5044,2.8885 L87.3324,8.4025" id="Stroke-4"></path>
                    <path d="M81.4448,1.4332 L81.5478,7.3592" id="Stroke-5"></path>
                    <path d="M73.4354,3.169 L75.7984,8.604" id="Stroke-7"></path>
                    <path d="M66.7063,7.8417 L70.9693,11.9587" id="Stroke-8"></path>
                    <path d="M62.2713,14.7298 L67.7853,16.9018" id="Stroke-9"></path>
                    <path d="M60.8161,22.7948 L66.7421,22.6918" id="Stroke-10"></path>
                    <path d="M62.5518,30.7987 L67.9868,28.4357" id="Stroke-11"></path>
                    <path d="M67.2245,37.5278 L71.3415,33.2648" id="Stroke-12"></path>
                    <path d="M74.1126,41.9628 L76.2846,36.4488" id="Stroke-13"></path>
                    <path d="M82.1722,43.4181 L82.0692,37.4921" id="Stroke-14"></path>
                    <path d="M90.1815,41.6824 L87.8185,36.2474" id="Stroke-15"></path>
                    <path d="M96.9106,37.0096 L92.6476,32.8926" id="Stroke-16"></path>
                    <path d="M101.3457,30.1216 L95.8317,27.9496" id="Stroke-17"></path>
                    <g id="Group-90" transform="translate(0.000000, 0.297000)">
                        <path d="M77.6797,12.6332 C82.9237,10.3532 89.0237,12.7562 91.3037,18.0002 C93.5837,23.2442 91.1817,29.3442 85.9367,31.6242 C80.6927,33.9042 74.5937,31.5012 72.3127,26.2572 C70.0327,21.0132 72.4357,14.9132 77.6797,12.6332 L77.6797,12.6332 Z" id="Stroke-18"></path>
                        <path d="M148.8884,23.4714 C144.7674,23.5434 138.5034,24.2674 138.0904,29.5074 C137.7644,33.6384 139.8814,39.1084 144.4594,39.7314 C146.9694,40.0734 149.5364,39.3284 151.6564,37.9904 C153.8024,36.6354 155.6964,34.6534 156.9024,32.4184 C157.6404,31.0514 158.1864,29.3654 158.0574,27.7724 C157.8814,25.6114 156.4484,24.7924 154.5434,24.2354 C152.7114,23.7004 150.7964,23.4384 148.8884,23.4714 L148.8884,23.4714 Z" id="Stroke-20"></path>
                        <path d="M162.2714,25.8622 C161.7984,25.4732 160.9484,24.9462 159.8374,24.9662 C158.7264,24.9852 157.8964,25.5422 157.4364,25.9462" id="Stroke-22"></path>
                        <path d="M170.7281,23.0901 C174.8491,23.0181 181.1341,23.5231 181.7301,28.7451 C182.2001,32.8621 180.2751,38.4031 175.7221,39.1851 C173.2251,39.6141 170.6331,38.9601 168.4681,37.6961 C166.2761,36.4171 164.3151,34.5031 163.0311,32.3111 C162.2461,30.9711 161.6411,29.3051 161.7151,27.7091 C161.8151,25.5431 163.2191,24.6741 165.1041,24.0511 C166.9151,23.4521 168.8201,23.1231 170.7281,23.0901 L170.7281,23.0901 Z" id="Stroke-24"></path>
                        <path d="M142.7354,7.5052 C142.7354,7.5052 137.7234,11.3262 137.8284,17.3222 L138.0414,29.5082" id="Stroke-26"></path>
                        <path d="M176.3202,6.919 C176.3202,6.919 181.4622,10.563 181.5672,16.558 L181.7792,28.744" id="Stroke-28"></path>
                        <path d="M173.1458,25.7283 C173.1458,25.7283 176.6438,25.4903 178.8688,28.4293" id="Stroke-30"></path>
                        <path d="M149.7144,26.1373 C149.7144,26.1373 153.2134,25.8993 155.4374,28.8383" id="Stroke-32"></path>
                        <path d="M221.9755,34.6022 C226.5245,37.8562 231.8645,39.6962 237.5545,39.5972 C243.2435,39.4982 248.5165,37.4722 252.9485,34.0612 L236.9075,2.5532 L221.9755,34.6022 L221.9755,34.6022 Z" id="Stroke-34"></path>
                        <path d="M223.5793,31.7779 C227.7793,34.2019 232.5093,35.9409 237.4883,35.8539 C242.4673,35.7669 247.1333,33.8649 251.2453,31.2959" id="Stroke-36"></path>
                        <path d="M231.0109,26.9884 C231.0109,26.9884 231.6949,28.6604 231.4239,29.8214 C231.2219,30.6834 230.4309,30.6584 230.1729,30.5984 C229.9149,30.5384 229.1949,30.2094 229.3969,29.3474 C229.6679,28.1864 231.0109,26.9884 231.0109,26.9884 L231.0109,26.9884 Z" id="Stroke-38"></path>
                        <path d="M234.4332,19.7136 C234.4332,19.7136 235.6692,21.0316 235.8302,22.2126 C235.9502,23.0896 235.2022,23.3486 234.9402,23.3846 C234.6772,23.4206 233.8872,23.3706 233.7682,22.4936 C233.6072,21.3126 234.4332,19.7136 234.4332,19.7136 L234.4332,19.7136 Z" id="Stroke-40"></path>
                        <path d="M241.5978,23.2744 C241.5978,23.2744 242.4238,24.8814 242.2528,26.0614 C242.1258,26.9374 241.3358,26.9814 241.0738,26.9434 C240.8118,26.9054 240.0658,26.6404 240.1928,25.7644 C240.3628,24.5844 241.5978,23.2744 241.5978,23.2744 L241.5978,23.2744 Z" id="Stroke-42"></path>
                        <path d="M238.3631,13.8173 C238.3631,13.8173 239.7121,15.0193 239.9781,16.1813 C240.1761,17.0443 239.4541,17.3693 239.1961,17.4283 C238.9381,17.4873 238.1471,17.5083 237.9491,16.6463 C237.6831,15.4843 238.3631,13.8173 238.3631,13.8173 L238.3631,13.8173 Z" id="Stroke-44"></path>
                        <path d="M3.3907,17.1363 C1.7907,15.4063 0.7957,13.1053 0.7517,10.5633 C0.6557,5.0763 5.0267,0.5503 10.5137,0.4543 C16.0007,0.3593 20.5267,4.7293 20.6227,10.2163 C20.6667,12.7583 19.7537,15.0933 18.2147,16.8773" id="Stroke-46"></path>
                        <path d="M20.8031,16.8311 L11.3481,48.2501 L0.8021,17.1801 L20.8031,16.8311 L20.8031,16.8311 Z" id="Stroke-48"></path>
                        <path d="M13.2342,4.9185 C13.2342,4.9185 15.8522,5.6395 16.8192,9.4345" id="Stroke-50"></path>
                        <path d="M13.6711,32.9442 L9.9481,21.9752" id="Stroke-52"></path>
                        <path d="M14.9765,28.58 L12.3405,20.813" id="Stroke-54"></path>
                        <path d="M15.2163,23.4474 L11.1543,36.9434" id="Stroke-56"></path>
                        <path d="M13.9279,19.459 L10.1249,32.097" id="Stroke-58"></path>
                        <path d="M303.3126,28.6637 C303.4046,33.9357 299.2056,38.2847 293.9326,38.3767 C288.6606,38.4687 284.3116,34.2697 284.2196,28.9967 C284.1276,23.7247 288.3276,19.3757 293.5996,19.2837 C298.8716,19.1917 303.2206,23.3917 303.3126,28.6637 L303.3126,28.6637 Z" id="Stroke-60"></path>
                        <path d="M295.8889,28.7933 C295.9089,29.9653 294.9759,30.9323 293.8029,30.9533 C292.6309,30.9733 291.6639,30.0393 291.6439,28.8673 C291.6229,27.6953 292.5569,26.7283 293.7289,26.7073 C294.9019,26.6873 295.8689,27.6213 295.8889,28.7933 L295.8889,28.7933 Z" id="Stroke-62"></path>
                        <path d="M336.876,28.0779 C336.968,33.3499 332.769,37.6989 327.496,37.7909 C322.224,37.8829 317.875,33.6839 317.783,28.4109 C317.691,23.1389 321.891,18.7899 327.163,18.6979 C332.435,18.6059 336.784,22.8059 336.876,28.0779 L336.876,28.0779 Z" id="Stroke-64"></path>
                        <path d="M327.3297,28.2445 C327.3297,28.2445 326.2207,27.0795 325.1897,25.9125 C324.1587,24.7465 322.9297,21.1505 322.9297,21.1505 L319.2727,7.5725 L321.3707,7.5355 C321.3707,7.5355 323.1187,7.4625 324.2247,6.2165 L325.3297,4.9705" id="Stroke-66"></path>
                        <path d="M293.7663,28.8304 L301.7543,13.5854 L320.8023,13.2534" id="Stroke-68"></path>
                        <path d="M299.4503,7.7065 L307.1503,26.7845" id="Stroke-70"></path>
                        <path d="M304.7756,7.6136 L296.3816,7.7606 C296.3816,7.7606 296.4236,10.1856 298.7936,10.1436 C299.7306,10.1276 300.2686,9.7346 300.2686,9.7346" id="Stroke-72"></path>
                        <path d="M311.1866,27.4875 L321.4086,15.5035" id="Stroke-74"></path>
                        <path d="M293.7292,26.7078 L308.6202,26.4348" id="Stroke-76"></path>
                        <path d="M293.5059,30.9349 L308.7429,33.4639" id="Stroke-78"></path>
                        <path d="M309.8686,26.6439 L310.7796,24.0839" id="Stroke-80"></path>
                        <path d="M312.0944,24.061 L309.4654,24.107" id="Stroke-82"></path>
                        <path d="M305.2608,35.8887 L307.8898,35.8427" id="Stroke-84"></path>
                        <path d="M308.6813,29.9495 L306.5753,35.8655" id="Stroke-86"></path>
                        <path d="M312.1961,29.8882 C312.2301,31.8292 310.6841,33.4302 308.7431,33.4642 C306.8011,33.4982 305.2001,31.9522 305.1661,30.0112 C305.1331,28.0702 306.6791,26.4682 308.6201,26.4352 C310.5611,26.4012 312.1621,27.9472 312.1961,29.8882 L312.1961,29.8882 Z" id="Stroke-88"></path>
                    </g>
                </g>
                <g id="Page-1-Copy" transform="translate(378.000000, 70.000000)">
                    <path d="M102.8008,22.0565 L96.8758,22.1595" id="Stroke-1"></path>
                    <path d="M101.0652,14.0526 L95.6302,16.4156" id="Stroke-2"></path>
                    <path d="M96.3925,7.3235 L92.2755,11.5865" id="Stroke-3"></path>
                    <path d="M89.5044,2.8885 L87.3324,8.4025" id="Stroke-4"></path>
                    <path d="M81.4448,1.4332 L81.5478,7.3592" id="Stroke-5"></path>
                    <path d="M73.4354,3.169 L75.7984,8.604" id="Stroke-7"></path>
                    <path d="M66.7063,7.8417 L70.9693,11.9587" id="Stroke-8"></path>
                    <path d="M62.2713,14.7298 L67.7853,16.9018" id="Stroke-9"></path>
                    <path d="M60.8161,22.7948 L66.7421,22.6918" id="Stroke-10"></path>
                    <path d="M62.5518,30.7987 L67.9868,28.4357" id="Stroke-11"></path>
                    <path d="M67.2245,37.5278 L71.3415,33.2648" id="Stroke-12"></path>
                    <path d="M74.1126,41.9628 L76.2846,36.4488" id="Stroke-13"></path>
                    <path d="M82.1722,43.4181 L82.0692,37.4921" id="Stroke-14"></path>
                    <path d="M90.1815,41.6824 L87.8185,36.2474" id="Stroke-15"></path>
                    <path d="M96.9106,37.0096 L92.6476,32.8926" id="Stroke-16"></path>
                    <path d="M101.3457,30.1216 L95.8317,27.9496" id="Stroke-17"></path>
                    <g id="Group-90" transform="translate(0.000000, 0.297000)">
                        <path d="M77.6797,12.6332 C82.9237,10.3532 89.0237,12.7562 91.3037,18.0002 C93.5837,23.2442 91.1817,29.3442 85.9367,31.6242 C80.6927,33.9042 74.5937,31.5012 72.3127,26.2572 C70.0327,21.0132 72.4357,14.9132 77.6797,12.6332 L77.6797,12.6332 Z" id="Stroke-18"></path>
                        <path d="M148.8884,23.4714 C144.7674,23.5434 138.5034,24.2674 138.0904,29.5074 C137.7644,33.6384 139.8814,39.1084 144.4594,39.7314 C146.9694,40.0734 149.5364,39.3284 151.6564,37.9904 C153.8024,36.6354 155.6964,34.6534 156.9024,32.4184 C157.6404,31.0514 158.1864,29.3654 158.0574,27.7724 C157.8814,25.6114 156.4484,24.7924 154.5434,24.2354 C152.7114,23.7004 150.7964,23.4384 148.8884,23.4714 L148.8884,23.4714 Z" id="Stroke-20"></path>
                        <path d="M162.2714,25.8622 C161.7984,25.4732 160.9484,24.9462 159.8374,24.9662 C158.7264,24.9852 157.8964,25.5422 157.4364,25.9462" id="Stroke-22"></path>
                        <path d="M170.7281,23.0901 C174.8491,23.0181 181.1341,23.5231 181.7301,28.7451 C182.2001,32.8621 180.2751,38.4031 175.7221,39.1851 C173.2251,39.6141 170.6331,38.9601 168.4681,37.6961 C166.2761,36.4171 164.3151,34.5031 163.0311,32.3111 C162.2461,30.9711 161.6411,29.3051 161.7151,27.7091 C161.8151,25.5431 163.2191,24.6741 165.1041,24.0511 C166.9151,23.4521 168.8201,23.1231 170.7281,23.0901 L170.7281,23.0901 Z" id="Stroke-24"></path>
                        <path d="M142.7354,7.5052 C142.7354,7.5052 137.7234,11.3262 137.8284,17.3222 L138.0414,29.5082" id="Stroke-26"></path>
                        <path d="M176.3202,6.919 C176.3202,6.919 181.4622,10.563 181.5672,16.558 L181.7792,28.744" id="Stroke-28"></path>
                        <path d="M173.1458,25.7283 C173.1458,25.7283 176.6438,25.4903 178.8688,28.4293" id="Stroke-30"></path>
                        <path d="M149.7144,26.1373 C149.7144,26.1373 153.2134,25.8993 155.4374,28.8383" id="Stroke-32"></path>
                        <path d="M3.3907,17.1363 C1.7907,15.4063 0.7957,13.1053 0.7517,10.5633 C0.6557,5.0763 5.0267,0.5503 10.5137,0.4543 C16.0007,0.3593 20.5267,4.7293 20.6227,10.2163 C20.6667,12.7583 19.7537,15.0933 18.2147,16.8773" id="Stroke-46"></path>
                        <path d="M20.8031,16.8311 L11.3481,48.2501 L0.8021,17.1801 L20.8031,16.8311 L20.8031,16.8311 Z" id="Stroke-48"></path>
                        <path d="M13.2342,4.9185 C13.2342,4.9185 15.8522,5.6395 16.8192,9.4345" id="Stroke-50"></path>
                        <path d="M13.6711,32.9442 L9.9481,21.9752" id="Stroke-52"></path>
                        <path d="M14.9765,28.58 L12.3405,20.813" id="Stroke-54"></path>
                        <path d="M15.2163,23.4474 L11.1543,36.9434" id="Stroke-56"></path>
                        <path d="M13.9279,19.459 L10.1249,32.097" id="Stroke-58"></path>
                    </g>
                </g>
                <g id="Page-1-Copy-26" transform="translate(0.000000, 70.000000)">
                    <g id="Group-90" transform="translate(0.000000, 0.297000)">
                        <path d="M221.9755,34.6022 C226.5245,37.8562 231.8645,39.6962 237.5545,39.5972 C243.2435,39.4982 248.5165,37.4722 252.9485,34.0612 L236.9075,2.5532 L221.9755,34.6022 L221.9755,34.6022 Z" id="Stroke-34"></path>
                        <path d="M223.5793,31.7779 C227.7793,34.2019 232.5093,35.9409 237.4883,35.8539 C242.4673,35.7669 247.1333,33.8649 251.2453,31.2959" id="Stroke-36"></path>
                        <path d="M231.0109,26.9884 C231.0109,26.9884 231.6949,28.6604 231.4239,29.8214 C231.2219,30.6834 230.4309,30.6584 230.1729,30.5984 C229.9149,30.5384 229.1949,30.2094 229.3969,29.3474 C229.6679,28.1864 231.0109,26.9884 231.0109,26.9884 L231.0109,26.9884 Z" id="Stroke-38"></path>
                        <path d="M234.4332,19.7136 C234.4332,19.7136 235.6692,21.0316 235.8302,22.2126 C235.9502,23.0896 235.2022,23.3486 234.9402,23.3846 C234.6772,23.4206 233.8872,23.3706 233.7682,22.4936 C233.6072,21.3126 234.4332,19.7136 234.4332,19.7136 L234.4332,19.7136 Z" id="Stroke-40"></path>
                        <path d="M241.5978,23.2744 C241.5978,23.2744 242.4238,24.8814 242.2528,26.0614 C242.1258,26.9374 241.3358,26.9814 241.0738,26.9434 C240.8118,26.9054 240.0658,26.6404 240.1928,25.7644 C240.3628,24.5844 241.5978,23.2744 241.5978,23.2744 L241.5978,23.2744 Z" id="Stroke-42"></path>
                        <path d="M238.3631,13.8173 C238.3631,13.8173 239.7121,15.0193 239.9781,16.1813 C240.1761,17.0443 239.4541,17.3693 239.1961,17.4283 C238.9381,17.4873 238.1471,17.5083 237.9491,16.6463 C237.6831,15.4843 238.3631,13.8173 238.3631,13.8173 L238.3631,13.8173 Z" id="Stroke-44"></path>
                        <path d="M303.3126,28.6637 C303.4046,33.9357 299.2056,38.2847 293.9326,38.3767 C288.6606,38.4687 284.3116,34.2697 284.2196,28.9967 C284.1276,23.7247 288.3276,19.3757 293.5996,19.2837 C298.8716,19.1917 303.2206,23.3917 303.3126,28.6637 L303.3126,28.6637 Z" id="Stroke-60"></path>
                        <path d="M295.8889,28.7933 C295.9089,29.9653 294.9759,30.9323 293.8029,30.9533 C292.6309,30.9733 291.6639,30.0393 291.6439,28.8673 C291.6229,27.6953 292.5569,26.7283 293.7289,26.7073 C294.9019,26.6873 295.8689,27.6213 295.8889,28.7933 L295.8889,28.7933 Z" id="Stroke-62"></path>
                        <path d="M336.876,28.0779 C336.968,33.3499 332.769,37.6989 327.496,37.7909 C322.224,37.8829 317.875,33.6839 317.783,28.4109 C317.691,23.1389 321.891,18.7899 327.163,18.6979 C332.435,18.6059 336.784,22.8059 336.876,28.0779 L336.876,28.0779 Z" id="Stroke-64"></path>
                        <path d="M327.3297,28.2445 C327.3297,28.2445 326.2207,27.0795 325.1897,25.9125 C324.1587,24.7465 322.9297,21.1505 322.9297,21.1505 L319.2727,7.5725 L321.3707,7.5355 C321.3707,7.5355 323.1187,7.4625 324.2247,6.2165 L325.3297,4.9705" id="Stroke-66"></path>
                        <path d="M293.7663,28.8304 L301.7543,13.5854 L320.8023,13.2534" id="Stroke-68"></path>
                        <path d="M299.4503,7.7065 L307.1503,26.7845" id="Stroke-70"></path>
                        <path d="M304.7756,7.6136 L296.3816,7.7606 C296.3816,7.7606 296.4236,10.1856 298.7936,10.1436 C299.7306,10.1276 300.2686,9.7346 300.2686,9.7346" id="Stroke-72"></path>
                        <path d="M311.1866,27.4875 L321.4086,15.5035" id="Stroke-74"></path>
                        <path d="M293.7292,26.7078 L308.6202,26.4348" id="Stroke-76"></path>
                        <path d="M293.5059,30.9349 L308.7429,33.4639" id="Stroke-78"></path>
                        <path d="M309.8686,26.6439 L310.7796,24.0839" id="Stroke-80"></path>
                        <path d="M312.0944,24.061 L309.4654,24.107" id="Stroke-82"></path>
                        <path d="M305.2608,35.8887 L307.8898,35.8427" id="Stroke-84"></path>
                        <path d="M308.6813,29.9495 L306.5753,35.8655" id="Stroke-86"></path>
                        <path d="M312.1961,29.8882 C312.2301,31.8292 310.6841,33.4302 308.7431,33.4642 C306.8011,33.4982 305.2001,31.9522 305.1661,30.0112 C305.1331,28.0702 306.6791,26.4682 308.6201,26.4352 C310.5611,26.4012 312.1621,27.9472 312.1961,29.8882 L312.1961,29.8882 Z" id="Stroke-88"></path>
                    </g>
                </g>
            </g>
        </g>
    </g>
</svg>