<?xml version="1.0" encoding="UTF-8" standalone="no"?>
<svg width="118px" height="83px" viewBox="0 0 118 83" version="1.1" xmlns="http://www.w3.org/2000/svg" xmlns:xlink="http://www.w3.org/1999/xlink">
    <!-- Generator: Sketch 3.6.1 (26313) - http://www.bohemiancoding.com/sketch -->
    <title>sunday</title>
    <desc>Created with Sketch.</desc>
    <defs></defs>
    <g id="Page-1" stroke="none" stroke-width="1" fill="none" fill-rule="evenodd">
        <g id="sunday" transform="translate(1.000000, 1.000000)" stroke-width="2" stroke="#000000">
            <g id="Layer_1">
                <g id="Group" transform="translate(45.000000, 0.000000)">
                    <path d="M12.7,0.2 C15.9,0.2 18.5,2.8 18.5,6 C18.5,9.2 15.9,11.8 12.7,11.8 C9.5,11.8 6.9,9.2 6.9,6 C6.9,2.8 9.5,0.2 12.7,0.2" id="Shape"></path>
                    <path d="M0.2,24.7 C0.6,22.3 2,15.8 7.5,15.8 L18,15.8 C23.5,15.8 25.1,22.3 25.5,24.7" id="Shape"></path>
                </g>
                <g id="Group" transform="translate(71.000000, 8.000000)">
                    <path d="M12.7,0.3 C15.9,0.3 18.5,2.9 18.5,6.1 C18.5,9.3 15.9,11.9 12.7,11.9 C9.5,11.9 7,9.3 7,6.1 C7,2.9 9.6,0.3 12.7,0.3" id="Shape"></path>
                    <path d="M0.9,22 C1.8,19.2 3.6,16 7.5,16 L18,16 C23.5,16 25.1,22.5 25.5,24.9" id="Shape"></path>
                </g>
                <g id="Group" transform="translate(21.000000, 9.000000)">
                    <path d="M12.8,0.7 C16,0.7 18.6,3.3 18.6,6.5 C18.6,9.7 16,12.3 12.8,12.3 C9.6,12.3 7,9.7 7,6.5 C7,3.3 9.6,0.7 12.8,0.7" id="Shape"></path>
                    <path d="M0.3,25.2 C0.7,22.8 2.1,16.3 7.6,16.3 L18,16.3 C23.5,16.3 25.1,22.8 25.5,25.2" id="Shape"></path>
                </g>
                <g id="Group" transform="translate(0.000000, 30.000000)">
                    <path d="M12.6,0 C15.8,0 18.4,2.6 18.4,5.8 C18.4,9 15.8,11.6 12.6,11.6 C9.4,11.6 6.8,9 6.8,5.8 C6.8,2.6 9.4,0 12.6,0" id="Shape"></path>
                    <path d="M0.1,24.5 C0.5,22.1 1.9,15.6 7.4,15.6 L17.9,15.6 C23.4,15.6 25,22.1 25.4,24.5" id="Shape"></path>
                </g>
                <g id="Group" transform="translate(60.000000, 29.000000)">
                    <path d="M12.8,0.8 C16,0.8 18.6,3.4 18.6,6.6 C18.6,9.8 16,12.4 12.8,12.4 C9.6,12.4 7,9.8 7,6.6 C7.1,3.4 9.6,0.8 12.8,0.8" id="Shape"></path>
                    <path d="M0.3,25.3 C0.7,22.9 2.1,16.4 7.6,16.4 L18.1,16.4 C23.6,16.4 25.2,22.9 25.6,25.3" id="Shape"></path>
                </g>
                <g id="Group" transform="translate(92.000000, 36.000000)">
                    <path d="M10.3,0.5 C13.5,0.5 16.1,3.1 16.1,6.3 C16.1,9.5 13.5,12.1 10.3,12.1 C7.1,12.1 4.5,9.5 4.5,6.3 C4.5,3.1 7.1,0.5 10.3,0.5" id="Shape"></path>
                    <path d="M0.6,18.2 C1.7,17 3.1,16.2 5.1,16.2 L15.6,16.2 C21.1,16.2 22.7,22.7 23.1,25.1" id="Shape"></path>
                </g>
                <g id="Group" transform="translate(37.000000, 34.000000)">
                    <path d="M12.2,0.5 C15.4,0.5 18,3.1 18,6.3 C18,9.5 15.4,12.1 12.2,12.1 C9,12.1 6.4,9.5 6.4,6.3 C6.4,3.1 9,0.5 12.2,0.5" id="Shape"></path>
                    <path d="M0.3,22.4 C1.1,19.6 3,16.2 7,16.2 L17.5,16.2 C21.9,16.2 23.8,20.3 24.6,23.2" id="Shape"></path>
                </g>
                <g id="Group" transform="translate(76.000000, 53.000000)">
                    <path d="M13.2,0.1 C16.4,0.1 19,2.7 19,5.9 C19,9.1 16.4,11.7 13.2,11.7 C10,11.7 7.4,9.1 7.4,5.9 C7.4,2.7 10,0.1 13.2,0.1" id="Shape"></path>
                    <path d="M0.7,24.6 C1.1,22.2 2.5,15.7 8,15.7 L18.5,15.7 C24,15.7 25.6,22.2 26,24.6" id="Shape"></path>
                </g>
                <g id="Group" transform="translate(20.000000, 53.000000)">
                    <path d="M12.5,0.9 C15.7,0.9 18.3,3.5 18.3,6.7 C18.3,9.9 15.7,12.5 12.5,12.5 C9.3,12.5 6.7,9.9 6.7,6.7 C6.7,3.5 9.3,0.9 12.5,0.9" id="Shape"></path>
                    <path d="M0,25.4 C0.4,23 1.8,16.5 7.3,16.5 L17.8,16.5 C23.3,16.5 24.9,23 25.3,25.4" id="Shape"></path>
                </g>
                <g id="Group" transform="translate(47.000000, 57.000000)">
                    <path d="M13.2,0 C16.4,0 19,2.6 19,5.8 C19,9 16.4,11.6 13.2,11.6 C10,11.6 7.4,9 7.4,5.8 C7.4,2.6 10,0 13.2,0" id="Shape"></path>
                    <path d="M0.7,24.5 C1.1,22.1 2.5,15.6 8,15.6 L18.5,15.6 C24,15.6 25.6,22.1 26,24.5" id="Shape"></path>
                </g>
            </g>
        </g>
    </g>
</svg>