<?xml version="1.0" encoding="UTF-8" standalone="no"?>
<svg width="82px" height="82px" viewBox="0 0 82 82" version="1.1" xmlns="http://www.w3.org/2000/svg" xmlns:xlink="http://www.w3.org/1999/xlink">
    <!-- Generator: Sketch 3.6.1 (26313) - http://www.bohemiancoding.com/sketch -->
    <title>volleyball</title>
    <desc>Created with Sketch.</desc>
    <defs></defs>
    <g id="Page-1" stroke="none" stroke-width="1" fill="none" fill-rule="evenodd">
        <g id="volleyball" transform="translate(1.000000, 1.000000)" stroke-width="2" stroke="#000000">
            <g id="Layer_1">
                <g id="Group">
                    <circle id="Oval" cx="40.1" cy="39.8" r="39.6"></circle>
                    <path d="M74.3,20 C74.3,20 63.1,16.7 52.7,22.6 C40.3,29.5 40.1,39.8 40.1,39.8" id="Shape"></path>
                    <path d="M31.4,1.2 C30.9,1.4 30.4,1.7 29.9,1.9 C9.3,12 8.9,26.9 8.9,26.9" id="Shape"></path>
                    <path d="M5.8,20 C5.8,20 8.5,31.3 18.9,37.4 C31.1,44.6 40.1,39.7 40.1,39.7" id="Shape"></path>
                    <path d="M48.6,56.6 C48.3,56.8 48,57 47.6,57.2 C47.6,57.2 33.6,64.9 15.3,54.7 C8.1,50.7 3.4,45 0.5,40" id="Shape"></path>
                    <path d="M11,66.7 C11.4,67 11.9,67.3 12.3,67.6 C31.3,80.4 44.5,73.3 44.5,73.3" id="Shape"></path>
                    <path d="M40.1,79.3 C40.1,79.3 48.5,71.3 48.7,59.3 C48.9,45.1 40.1,39.8 40.1,39.8" id="Shape"></path>
                    <path d="M77.9,51.5 C78,51 78,50.4 78,49.9 C79.5,27 66.8,19.2 66.8,19.2" id="Shape"></path>
                    <path d="M21.3,38.8 C21.2,38.4 21.2,38 21.2,37.6 C21.2,37.6 21.6,21.6 39.5,10.9 C46.6,6.7 53.9,5.5 59.6,5.5" id="Shape"></path>
                    <path d="M50.4,24 C50.7,24.2 51,24.4 51.4,24.6 C51.4,24.6 65,32.9 65.4,53.8 C65.5,62 62.9,68.9 60.1,74" id="Shape"></path>
                </g>
            </g>
        </g>
    </g>
</svg>