<?xml version="1.0" encoding="UTF-8" standalone="no"?>
<svg width="26px" height="22px" viewBox="0 0 26 22" version="1.1" xmlns="http://www.w3.org/2000/svg" xmlns:xlink="http://www.w3.org/1999/xlink" xmlns:sketch="http://www.bohemiancoding.com/sketch/ns">
    <!-- Generator: Sketch 3.3.3 (12072) - http://www.bohemiancoding.com/sketch -->
    <title>Stroke 514 + Stroke 515 + Stroke 516</title>
    <desc>Created with Sketch.</desc>
    <defs></defs>
    <g id="Page-1" stroke="none" stroke-width="1" fill="none" fill-rule="evenodd" sketch:type="MSPage">
        <g id="Stroke-514-+-Stroke-515-+-Stroke-516" sketch:type="MSLayerGroup" transform="translate(1.000000, 1.000000)" stroke="#FFFFFF" stroke-width="2" stroke-linecap="round" stroke-linejoin="round">
            <path d="M7.5,4.5 L7.5,13.028 C7.5,15.769 9.049,18.274 11.5,19.5" id="Stroke-514" sketch:type="MSShapeGroup"></path>
            <path d="M23.5,9 C23.5,9.828 22.828,10.5 22,10.5 L21.5,10.5 L21.5,6.5 L22,6.5 C22.828,6.5 23.5,7.172 23.5,8 L23.5,9 L23.5,9 Z" id="Stroke-515" sketch:type="MSShapeGroup"></path>
            <path d="M4.5,4.5 L3.5,4.5 C1.843,4.5 0.5,5.843 0.5,7.5 L0.5,9.5 C0.5,11.157 1.843,12.5 3.5,12.5 L4.5,12.5 C13.427,12.5 17.09,14.496 21.5,16.5 L21.5,0.5 C17.099,2.5 13.432,4.5 4.5,4.5 L4.5,4.5 Z" id="Stroke-516" sketch:type="MSShapeGroup"></path>
        </g>
    </g>
</svg>