<?xml version="1.0" encoding="UTF-8" standalone="no"?>
<svg width="60px" height="54px" viewBox="0 0 60 54" version="1.1" xmlns="http://www.w3.org/2000/svg" xmlns:xlink="http://www.w3.org/1999/xlink" xmlns:sketch="http://www.bohemiancoding.com/sketch/ns">
    <!-- Generator: Sketch 3.3.3 (12072) - http://www.bohemiancoding.com/sketch -->
    <title>bible</title>
    <desc>Created with Sketch.</desc>
    <defs></defs>
    <g id="Page-1" stroke="none" stroke-width="1" fill="none" fill-rule="evenodd" sketch:type="MSPage">
        <g id="bible" sketch:type="MSLayerGroup" transform="translate(2.000000, 2.000000)" stroke="#FFFFFF" stroke-width="3">
            <path d="M28,8.8916 C28,4.0166 39.982,0.0646 56,0.0646 L56,41.6736 C39.982,41.6736 28,45.6256 28,50.4996 C28,45.6256 16.015,41.6736 0,41.6736 L0,0.0646 C16.015,0.0646 28,4.0166 28,8.8916 L28,8.8916 Z" id="Stroke-4301" stroke-linecap="round" stroke-linejoin="round" sketch:type="MSShapeGroup"></path>
            <path d="M28,8.8916 L28,50.4996" id="Stroke-4302" stroke-linecap="round" stroke-linejoin="round" sketch:type="MSShapeGroup"></path>
            <path d="M21.6953,14.5391 C17.6343,12.9871 11.8943,11.8571 5.3033,11.4131" id="Stroke-4303" stroke-linecap="round" stroke-linejoin="round" sketch:type="MSShapeGroup"></path>
            <path d="M21.6953,22.1045 C17.6343,20.5515 11.8943,19.4225 5.3033,18.9775" id="Stroke-4304" stroke-linecap="round" stroke-linejoin="round" sketch:type="MSShapeGroup"></path>
            <path d="M21.6953,29.6699 C17.6343,28.1179 11.8943,26.9879 5.3033,26.5439" id="Stroke-4305" stroke-linecap="round" stroke-linejoin="round" sketch:type="MSShapeGroup"></path>
            <path d="M21.6953,37.2349 C17.6343,35.6819 11.8943,34.5539 5.3033,34.1089" id="Stroke-4306" stroke-linecap="round" stroke-linejoin="round" sketch:type="MSShapeGroup"></path>
            <path d="M34.3037,29.6699 C38.3667,28.1179 44.1057,26.9879 50.6957,26.5439" id="Stroke-4307" stroke-linecap="round" stroke-linejoin="round" sketch:type="MSShapeGroup"></path>
            <path d="M34.3037,37.2349 C38.3667,35.6819 44.1057,34.5539 50.6957,34.1089" id="Stroke-4308" stroke-linecap="round" stroke-linejoin="round" sketch:type="MSShapeGroup"></path>
            <path d="M50,0.2534 L50,21.0654 L45,16.0654 L40,21.0654 L40,1.5944" id="Stroke-4309" sketch:type="MSShapeGroup"></path>
        </g>
    </g>
</svg>