<?xml version="1.0" encoding="UTF-8" standalone="no"?>
<svg width="62px" height="57px" viewBox="0 0 62 57" version="1.1" xmlns="http://www.w3.org/2000/svg" xmlns:xlink="http://www.w3.org/1999/xlink" xmlns:sketch="http://www.bohemiancoding.com/sketch/ns">
    <!-- Generator: Sketch 3.3.3 (12072) - http://www.bohemiancoding.com/sketch -->
    <title>discover</title>
    <desc>Created with Sketch.</desc>
    <defs></defs>
    <g id="Page-1" stroke="none" stroke-width="1" fill="none" fill-rule="evenodd" sketch:type="MSPage">
        <g id="discover" sketch:type="MSLayerGroup" transform="translate(2.000000, 2.000000)" stroke="#FFFFFF" stroke-width="3" stroke-linecap="round" stroke-linejoin="round">
            <path d="M26,40.5 C26,47.679 20.179,53.5 13,53.5 C5.819,53.5 0,47.679 0,40.5 C0,33.321 5.819,27.5 13,27.5 C20.179,27.5 26,33.321 26,40.5 L26,40.5 Z" id="Stroke-1219" sketch:type="MSShapeGroup"></path>
            <path d="M26,11.5 L26,1.5 C24.108,-0.391 19.891,-0.391 18,1.5 L14,11.5 L10,15.5 L2,33.5" id="Stroke-1220" sketch:type="MSShapeGroup"></path>
            <path d="M32,40.5 C32,47.679 37.819,53.5 45,53.5 C52.179,53.5 58,47.679 58,40.5 C58,33.321 52.179,27.5 45,27.5 C37.819,27.5 32,33.321 32,40.5 L32,40.5 Z" id="Stroke-1221" sketch:type="MSShapeGroup"></path>
            <path d="M32,11.5 L32,1.5 C33.891,-0.391 38.456,-0.391 40.348,1.5 L44,11.5 L48,15.5 L56,33.5" id="Stroke-1222" sketch:type="MSShapeGroup"></path>
            <path d="M19,22.5 C19,19.714 23.43,17.5 29,17.5 C34.57,17.5 39,19.714 39,22.5" id="Stroke-1223" sketch:type="MSShapeGroup"></path>
            <path d="M26,40.5 L26,17.725" id="Stroke-1224" sketch:type="MSShapeGroup"></path>
            <path d="M32,40.5 L32,17.725" id="Stroke-1225" sketch:type="MSShapeGroup"></path>
            <path d="M5.0435,40.8921 C5.0435,36.7141 8.4305,33.3271 12.6085,33.3271" id="Stroke-1226" sketch:type="MSShapeGroup"></path>
            <path d="M37.8262,40.8921 C37.8262,36.7141 41.2132,33.3271 45.3912,33.3271" id="Stroke-1227" sketch:type="MSShapeGroup"></path>
        </g>
    </g>
</svg>