<?xml version="1.0" encoding="UTF-8" standalone="no"?>
<svg width="60px" height="59px" viewBox="0 0 60 59" version="1.1" xmlns="http://www.w3.org/2000/svg" xmlns:xlink="http://www.w3.org/1999/xlink" xmlns:sketch="http://www.bohemiancoding.com/sketch/ns">
    <!-- Generator: Sketch 3.3.2 (12043) - http://www.bohemiancoding.com/sketch -->
    <title>Group</title>
    <desc>Created with Sketch.</desc>
    <defs></defs>
    <g id="Page-1" stroke="none" stroke-width="1" fill="none" fill-rule="evenodd" sketch:type="MSPage">
        <g id="Group" sketch:type="MSLayerGroup" transform="translate(1.000000, 1.000000)" stroke="#0087E0" stroke-width="2">
            <path d="M58,26.5 L0,26.5 L0,16.5 L58,16.5 L58,26.5 Z" id="Stroke-1891" sketch:type="MSShapeGroup"></path>
            <path d="M56,56.5 L2,56.5 L2,26.5 L56,26.5 L56,56.5 Z" id="Stroke-1892" sketch:type="MSShapeGroup"></path>
            <path d="M20,16.5 L20,56.5" id="Stroke-1893" sketch:type="MSShapeGroup"></path>
            <path d="M38,56.5 L38,16.5" id="Stroke-1894" sketch:type="MSShapeGroup"></path>
            <path d="M43.1548,11.1504 C40.6928,13.6124 28.8888,16.5004 28.8888,16.5004 C28.8888,16.5004 31.7758,4.6964 34.2378,2.2354 C36.6998,-0.2266 40.6928,-0.2266 43.1548,2.2354 C45.6148,4.6964 45.6148,8.6884 43.1548,11.1504 L43.1548,11.1504 Z" id="Stroke-1895" stroke-linecap="round" stroke-linejoin="round" sketch:type="MSShapeGroup"></path>
            <path d="M14.623,11.1504 C17.085,13.6124 28.889,16.5004 28.889,16.5004 C28.889,16.5004 26,4.6964 23.54,2.2354 C21.077,-0.2266 17.085,-0.2266 14.623,2.2354 C12.163,4.6964 12.16,8.6884 14.623,11.1504 L14.623,11.1504 Z" id="Stroke-1896" stroke-linecap="round" stroke-linejoin="round" sketch:type="MSShapeGroup"></path>
        </g>
    </g>
</svg>