<?xml version="1.0" encoding="UTF-8" standalone="no"?>
<svg width="56px" height="55px" viewBox="0 0 56 55" version="1.1" xmlns="http://www.w3.org/2000/svg" xmlns:xlink="http://www.w3.org/1999/xlink" xmlns:sketch="http://www.bohemiancoding.com/sketch/ns">
    <!-- Generator: Sketch 3.3.3 (12072) - http://www.bohemiancoding.com/sketch -->
    <title>lifeskills</title>
    <desc>Created with Sketch.</desc>
    <defs></defs>
    <g id="Page-1" stroke="none" stroke-width="1" fill="none" fill-rule="evenodd" sketch:type="MSPage">
        <g id="lifeskills" sketch:type="MSLayerGroup" transform="translate(2.000000, 1.000000)" stroke="#FFFFFF" stroke-width="3" stroke-linecap="round" stroke-linejoin="round">
            <path d="M23,48 L29,48" id="Stroke-4781" sketch:type="MSShapeGroup"></path>
            <path d="M25,52 L27,52" id="Stroke-4782" sketch:type="MSShapeGroup"></path>
            <path d="M42,25.5 C42,16.664 34.837,9.5 26,9.5 C17.163,9.5 10,16.664 10,25.5 C10,32.952 15.102,39.197 22,40.976 L22,44.5 L30,44.5 L30,40.976 C36.897,39.197 42,32.952 42,25.5 L42,25.5 Z" id="Stroke-4783" sketch:type="MSShapeGroup"></path>
            <path d="M0,24 L4,24" id="Stroke-4784" sketch:type="MSShapeGroup"></path>
            <path d="M6,6.5 L11,11.5" id="Stroke-4785" sketch:type="MSShapeGroup"></path>
            <path d="M26,0.5 L26,4.5" id="Stroke-4786" sketch:type="MSShapeGroup"></path>
            <path d="M46,6.5 L41,11.5" id="Stroke-4787" sketch:type="MSShapeGroup"></path>
            <path d="M52,24 L48,24" id="Stroke-4788" sketch:type="MSShapeGroup"></path>
        </g>
    </g>
</svg>