<?xml version="1.0" encoding="UTF-8" standalone="no"?>
<svg width="20px" height="24px" viewBox="0 0 20 24" version="1.1" xmlns="http://www.w3.org/2000/svg" xmlns:xlink="http://www.w3.org/1999/xlink" xmlns:sketch="http://www.bohemiancoding.com/sketch/ns">
    <!-- Generator: Sketch 3.3.2 (12043) - http://www.bohemiancoding.com/sketch -->
    <title>Fill 2800</title>
    <desc>Created with Sketch.</desc>
    <defs></defs>
    <g id="Page-1" stroke="none" stroke-width="1" fill="none" fill-rule="evenodd" sketch:type="MSPage">
        <g id="Fill-2800" sketch:type="MSLayerGroup" fill="#58595B">
            <path d="M9.5309,15.0063 C6.4979,15.0063 4.0309,12.5393 4.0309,9.5063 C4.0309,6.4733 6.4979,4.0063 9.5309,4.0063 C12.5639,4.0063 15.0309,6.4733 15.0309,9.5063 C15.0309,12.5393 12.5639,15.0063 9.5309,15.0063 M9.5309,0.0063 C4.1149,0.0063 0.0309,4.3053 0.0309,10.0063 C0.0309,17.1793 8.8629,23.6403 9.2379,23.9113 C9.3249,23.9753 9.4289,24.0063 9.5309,24.0063 C9.6339,24.0063 9.7369,23.9753 9.8239,23.9113 C10.1999,23.6403 19.0309,17.1793 19.0309,10.0063 C19.0309,4.3053 14.9469,0.0063 9.5309,0.0063" sketch:type="MSShapeGroup"></path>
        </g>
    </g>
</svg>